<svg width="119" height="100" viewBox="0 0 119 100" fill="none" xmlns="http://www.w3.org/2000/svg">
<g filter="url(#filter0_d_1_14)">
<rect x="45" y="12" width="48" height="48" rx="24" fill="white"/>
<rect x="46" y="13" width="46" height="46" rx="23" stroke="black" stroke-width="2"/>
<g clip-path="url(#clip0_1_14)">
<path d="M72.11 28.503L78.31 34.802L79 35.503L78.31 36.205L72.11 42.504L70.685 41.101L75.21 36.503H59V34.503H75.21L70.685 29.906L72.111 28.503H72.11Z" fill="#131313"/>
</g>
</g>
<path d="M6.89 29.5029L0.690001 35.8019L0 36.5029L0.690001 37.2049L6.89 43.5039L8.315 42.1009L3.79 37.5029H20V35.5029H3.79L8.315 30.9059L6.889 29.5029H6.89Z" fill="#131313"/>
<defs>
<filter id="filter0_d_1_14" x="19" y="0" width="100" height="100" filterUnits="userSpaceOnUse" color-interpolation-filters="sRGB">
<feFlood flood-opacity="0" result="BackgroundImageFix"/>
<feColorMatrix in="SourceAlpha" type="matrix" values="0 0 0 0 0 0 0 0 0 0 0 0 0 0 0 0 0 0 127 0" result="hardAlpha"/>
<feMorphology radius="4" operator="erode" in="SourceAlpha" result="effect1_dropShadow_1_14"/>
<feOffset dy="14"/>
<feGaussianBlur stdDeviation="15"/>
<feColorMatrix type="matrix" values="0 0 0 0 0.808333 0 0 0 0 0.808333 0 0 0 0 0.808333 0 0 0 0.5 0"/>
<feBlend mode="normal" in2="BackgroundImageFix" result="effect1_dropShadow_1_14"/>
<feBlend mode="normal" in="SourceGraphic" in2="effect1_dropShadow_1_14" result="shape"/>
</filter>
<clipPath id="clip0_1_14">
<rect width="20" height="15" fill="white" transform="translate(59 28.5)"/>
</clipPath>
</defs>
</svg>
