<svg width="165" height="49" viewBox="0 0 165 49" fill="none" xmlns="http://www.w3.org/2000/svg">
<path d="M29.1789 15.5267V34.7678C29.1789 35.8294 28.2434 36.6919 27.0921 36.6919C25.9408 36.6919 25.0053 35.8294 25.0053 34.7678V28.531C25.0053 27.4694 24.0699 26.6069 22.9185 26.6069H18.745C17.5936 26.6069 16.6582 27.4694 16.6582 28.531V29.3272C16.6582 30.3888 15.7227 31.2513 14.5714 31.2513C13.4201 31.2513 12.4846 30.3888 12.4846 29.3272V20.2042C12.4846 19.1427 13.4201 18.2801 14.5714 18.2801C15.7227 18.2801 16.6582 19.1427 16.6582 20.2042V20.8677C16.6582 21.9293 17.5936 22.7918 18.745 22.7918H22.9545C24.1059 22.7918 25.0413 21.9293 25.0413 20.8677V15.5267C25.0413 14.4651 25.9768 13.6025 27.1281 13.6025C28.2434 13.6357 29.1789 14.4651 29.1789 15.5267Z" fill="white"/>
<path d="M25.509 40.6402C24.8974 40.6402 24.2857 40.9056 23.926 41.37C21.8751 43.8249 18.6011 45.4173 14.9672 45.4173C8.81475 45.4173 3.81366 40.9387 3.81366 35.465V14.3329C3.81366 8.85909 8.85073 4.38055 14.9672 4.38055C18.709 4.38055 22.0191 6.03927 24.0699 8.56052C24.4656 9.02497 25.0413 9.32354 25.6889 9.32354H25.9048C27.4879 9.32354 28.4593 7.66482 27.5598 6.47054C24.8974 2.8877 20.364 0.499146 15.219 0.499146H14.7873C6.656 0.499146 -0.00012207 6.43736 -0.00012207 13.6694V35.8299C-0.00012207 43.0619 6.656 49.0001 14.7873 49.0001H15.219C20.1122 49.0001 24.4297 46.877 27.1281 43.5927C28.0635 42.3984 27.1641 40.6402 25.509 40.6402Z" fill="white"/>
<path d="M38.8213 16.6552H44.2901C45.9811 16.6552 47.5642 17.2191 49.0033 18.3139C49.7229 18.9442 50.1907 19.475 50.4065 19.8399C51.1261 20.9678 51.5219 22.1289 51.5219 23.3232V35.0338C51.5219 35.5646 51.234 36.029 50.6584 36.4271C50.3346 36.593 50.0108 36.6925 49.6869 36.6925C48.8954 36.6925 48.3197 36.3607 47.9599 35.6641C47.7801 35.1996 47.4562 34.9674 46.9885 34.9674C46.7726 34.9674 46.3769 35.1665 45.7292 35.5314C45.1896 35.7968 44.5419 36.0622 43.8224 36.2612C42.671 36.5598 41.6636 36.7257 40.8001 36.7257H40.5123C38.6054 36.7257 36.9144 36.0622 35.4033 34.702C34.7556 34.0385 34.3599 33.4746 34.144 33.0433C33.6403 32.0481 33.3884 31.086 33.3884 30.1903V29.9913C33.3884 28.2662 34.108 26.707 35.5472 25.3137C37.0583 24.053 38.7133 23.4227 40.4763 23.4227H46.4848C47.0245 23.4227 47.3483 23.29 47.4922 23.0578C47.6002 22.9251 47.6721 22.7924 47.6721 22.6265V22.5602C47.6361 22.1953 47.3843 21.7308 46.8806 21.2C46.3409 20.7356 45.9091 20.437 45.5494 20.3375C45.1896 20.1716 44.5419 20.0721 43.6425 20.0721H38.8213C38.3176 20.0721 37.8858 19.8731 37.4541 19.4418C37.2022 19.1101 37.0583 18.8115 37.0583 18.5129V18.3802C37.0583 17.8163 37.3101 17.385 37.8498 17.0201C38.2096 16.7547 38.4975 16.6552 38.8213 16.6552ZM37.0583 30.0576C37.0583 30.9533 37.4541 31.7827 38.2816 32.5125C39.0012 33.0433 39.7567 33.3087 40.4403 33.3087H40.8001C41.9874 33.3087 43.2107 32.977 44.47 32.2803C45.8732 31.4841 46.8446 30.2898 47.4562 28.7638C47.6002 28.2994 47.6721 27.9345 47.7441 27.6691V27.5695C47.7441 27.2378 47.5282 27.0056 47.1324 26.8065C47.0245 26.8065 46.9525 26.7733 46.9166 26.7733H40.4763C39.6128 26.7733 38.8213 27.1051 38.0297 27.8018C37.3821 28.4984 37.0583 29.2614 37.0583 30.0576Z" fill="white"/>
<path d="M57.3866 8.52625H57.5305C58.3581 8.52625 59.0057 8.92434 59.5094 9.68735C59.6533 9.95274 59.7253 10.2513 59.7253 10.5831V10.7821C59.7253 11.5119 59.2935 12.1423 58.43 12.5735C58.1062 12.7062 57.7824 12.7726 57.4586 12.7726C56.4871 12.7726 55.8035 12.3413 55.3358 11.4456C55.2279 11.2134 55.1919 10.9812 55.1919 10.7821V10.6162C55.1919 9.72052 55.6956 9.09021 56.703 8.69212C56.9549 8.55942 57.1707 8.52625 57.3866 8.52625Z" fill="white"/>
<path d="M57.2786 16.6552H57.5665C58.0342 16.6552 58.5019 16.8874 58.8977 17.3186C59.1136 17.6504 59.2215 17.949 59.2215 18.2475V35.0669C59.2215 35.6641 58.8617 36.1617 58.1421 36.5598C57.8543 36.6593 57.6384 36.6925 57.4945 36.6925H57.3146C56.703 36.6925 56.2352 36.3939 55.8035 35.8299C55.6236 35.5977 55.5516 35.1996 55.5516 34.6688V18.6788C55.5516 17.7831 55.8395 17.2191 56.4151 16.9205C56.7389 16.7547 56.9908 16.6552 57.2786 16.6552Z" fill="white"/>
<path d="M65.3378 16.6552C65.9494 16.6552 66.4531 16.9205 66.8489 17.4182C67.1007 17.7831 67.3886 17.949 67.7484 17.949C67.8923 17.949 68.2521 17.8163 68.7558 17.5509C70.087 16.9537 71.4902 16.6552 72.8934 16.6552C75.6997 16.6552 78.1103 17.6504 80.0892 19.674C80.8088 20.5366 81.2765 21.2332 81.5283 21.7972C82.104 22.8256 82.3918 24.1857 82.3918 25.8776V34.7352C82.3918 35.5314 82.14 36.0622 81.6723 36.3276C81.3485 36.5598 80.9527 36.6925 80.5209 36.6925C80.0532 36.6925 79.6215 36.4934 79.1897 36.1285C78.8659 35.83 78.686 35.3655 78.686 34.702V25.944C78.686 24.6834 78.5061 23.7545 78.1463 23.1573C77.4627 21.8304 76.3474 20.9015 74.8003 20.3375C74.1167 20.1385 73.469 20.0389 72.8934 20.0389C71.2383 20.0389 69.7632 20.6361 68.5759 21.8304C67.9283 22.527 67.4605 23.3564 67.2447 24.3184C67.1727 24.6502 67.1007 25.2141 67.1007 25.944V34.702C67.1007 35.4982 66.8489 36.029 66.3812 36.2944C66.0573 36.5266 65.6976 36.6593 65.2298 36.6593C64.7621 36.6593 64.3304 36.4603 63.8986 36.0953C63.5748 35.7968 63.3949 35.3323 63.3949 34.6688V18.6124C63.3949 17.949 63.5748 17.4513 63.9346 17.1528C64.4383 16.821 64.87 16.6552 65.3378 16.6552Z" fill="white"/>
<path d="M88.4725 8.62646C89.1921 8.62646 89.7318 8.95821 90.1635 9.65487C90.2355 9.92027 90.3074 10.1857 90.3074 10.3847V15.6594C90.3074 16.1571 90.4873 16.4556 90.8471 16.5883C90.991 16.6215 91.099 16.6547 91.2429 16.6547H97.5752C97.6112 16.6547 97.6112 16.6878 97.6112 16.721V19.0764C97.6112 19.5408 97.4313 19.8394 97.0355 19.9721C96.8916 20.0385 96.7837 20.0385 96.6757 20.0385H92.4662C91.6027 20.0385 91.027 20.2375 90.7392 20.6688C90.4514 20.901 90.3074 21.3654 90.3074 22.0621V31.2514C90.3074 32.0476 90.5233 32.6116 90.9551 32.8438C91.2069 33.1424 91.7106 33.3082 92.4302 33.3082H93.4736C93.5096 33.3082 93.5096 33.3082 93.5096 33.3414V36.6588C93.5096 36.692 93.5096 36.692 93.4736 36.692H91.3149C89.5879 36.692 88.2566 35.9954 87.2492 34.602C86.8535 33.9385 86.6376 33.2087 86.6376 32.3793V10.3847C86.6376 9.58852 87.0693 9.02456 87.9328 8.69281C88.1127 8.65964 88.2926 8.62646 88.4725 8.62646Z" fill="white"/>
<path d="M111.463 16.6217C114.485 16.6217 117.112 17.6833 119.414 19.7733C120.242 20.6026 120.638 21.2329 120.638 21.6642C120.638 21.7637 120.638 21.8301 120.674 21.8633C120.674 22.2945 120.458 22.6926 120.062 23.0907C119.846 23.2566 116.32 25.5788 109.52 30.0242C109.52 30.0242 108.944 30.4223 107.793 31.1853C107.613 31.3843 107.541 31.5502 107.541 31.7492V31.8819C107.541 32.1142 107.685 32.3464 107.973 32.5122C109.124 33.043 110.204 33.3084 111.211 33.3084H111.643C113.262 33.3084 114.809 32.7445 116.284 31.6165C117.076 30.8867 117.543 30.3227 117.687 30.0242C117.939 29.6592 118.155 29.1948 118.371 28.5645C118.515 27.9342 118.695 27.4697 118.983 27.2375C119.414 26.8726 119.846 26.7067 120.278 26.7067C121.141 26.7067 121.717 27.0716 122.041 27.8347C122.113 28.0005 122.149 28.1664 122.149 28.3654V28.4318C122.149 28.9294 121.861 29.7588 121.357 30.9199C121.069 31.5502 120.566 32.2468 119.882 33.0762C119.163 33.806 118.551 34.37 118.011 34.7349C117.076 35.3321 116.284 35.7633 115.565 35.9956C114.197 36.4932 112.902 36.7586 111.643 36.7586H111.319C109.124 36.7586 107.002 36.1283 104.987 34.8344C104.015 34.1378 103.224 33.408 102.576 32.5786C102.108 31.9483 101.749 31.3511 101.461 30.8204C100.849 29.3939 100.525 28.0669 100.525 26.7731C100.525 24.3845 101.389 22.195 103.116 20.2045C103.907 19.4084 104.519 18.9107 104.879 18.7117C106.93 17.3184 109.088 16.6217 111.463 16.6217ZM104.267 26.6404C104.267 27.5693 104.375 28.1 104.627 28.2659C104.807 28.4318 105.023 28.4981 105.311 28.4981C105.526 28.4981 105.922 28.2659 106.498 27.8347C106.57 27.8015 109.412 25.9437 115.061 22.2282C115.277 22.0291 115.385 21.8301 115.385 21.5979V21.4652C115.385 21.2329 115.241 21.0339 114.953 20.8349C113.802 20.2709 112.722 20.0055 111.715 20.0055H111.283C109.628 20.0055 108.045 20.6026 106.534 21.7969C105.023 23.2234 104.267 24.8158 104.267 26.6404Z" fill="white"/>
<path d="M135.173 16.6552C137.44 16.6552 139.491 17.2523 141.362 18.4466C141.793 18.8115 142.009 19.2428 142.009 19.7735C142.009 20.3707 141.686 20.8351 141.038 21.2C140.714 21.3327 140.426 21.3991 140.174 21.3991C139.743 21.3991 139.203 21.2 138.591 20.8351C137.548 20.3043 136.361 20.0389 135.101 20.0389H134.957C133.842 20.0389 132.691 20.3375 131.503 20.9347C129.956 21.7972 128.877 22.9915 128.301 24.5507C128.049 25.2805 127.906 25.9772 127.906 26.707C127.906 28.5316 128.697 30.1571 130.244 31.5836C131.216 32.3466 132.151 32.8443 133.122 33.0765C133.806 33.2424 134.418 33.3419 134.921 33.3419H135.101C136.541 33.3419 137.908 32.977 139.167 32.2139C139.491 32.0481 139.815 31.9817 140.138 31.9817C140.714 31.9817 141.218 32.2471 141.65 32.7447C141.865 33.0433 141.937 33.3751 141.937 33.6736C141.937 34.3703 141.542 34.9343 140.786 35.2992C139.059 36.2612 137.152 36.7588 135.065 36.7588C132.727 36.7588 130.532 36.0622 128.481 34.6357C128.013 34.3039 127.51 33.8395 126.97 33.2755C126.358 32.612 125.927 32.0481 125.747 31.6832C124.811 30.124 124.308 28.4984 124.308 26.7402C124.308 24.5838 125.027 22.5602 126.502 20.7024C126.754 20.3707 127.222 19.9062 127.941 19.2759C128.733 18.6788 129.453 18.1812 130.136 17.8826C131.791 17.0201 133.482 16.6552 135.173 16.6552Z" fill="white"/>
<path d="M147.946 8.62646H148.09C148.737 8.62646 149.241 8.95821 149.673 9.58852C149.781 9.85392 149.853 10.0861 149.853 10.2188V16.8869C149.853 17.285 150.069 17.5504 150.5 17.7163C150.572 17.7163 150.644 17.7494 150.68 17.7494H150.716C150.932 17.7494 151.364 17.5836 152.047 17.285C153.235 16.8537 154.386 16.6547 155.537 16.6547C157.912 16.6547 159.999 17.4177 161.87 18.9105C162.733 19.7067 163.273 20.3039 163.489 20.6688C164.136 21.5977 164.568 22.5597 164.784 23.5881C164.928 24.1189 165 24.9483 165 26.1094V34.7679C165 35.6968 164.64 36.2939 163.885 36.5925C163.633 36.692 163.381 36.7252 163.237 36.7252H163.093C162.409 36.7252 161.87 36.3934 161.474 35.6968C161.366 35.4977 161.294 35.166 161.294 34.7679V25.4791C161.294 23.9862 160.754 22.6924 159.639 21.6308C158.452 20.5693 157.084 20.0385 155.501 20.0385C153.846 20.0385 152.407 20.6356 151.184 21.8631C150.248 22.8583 149.781 24.0526 149.781 25.4459V35.0665C149.781 35.5641 149.529 35.9954 148.989 36.3934C148.665 36.5925 148.342 36.692 148.018 36.692H147.874C147.262 36.692 146.758 36.3934 146.363 35.8295C146.183 35.5973 146.111 35.1992 146.111 34.6684V10.6169C146.111 9.68805 146.471 9.09091 147.226 8.79234C147.514 8.69281 147.766 8.62646 147.946 8.62646Z" fill="white"/>
</svg>
